# xmcd
#
# Track frame offsets: 
#        150
#        18802
#        31634
#        52628
#        66926
#        81309
#        100276
#        119303
#        133204
#        147484
#        168178
#        189043
#        208344
#        221574
#        231229
#        247814
#        271439
#        287205
#        304660
#        317891
#        337616
#
# Disc length: 4783 seconds
#
# Revision: 1
# Processed by: cddbd v1.5.2PL0 Copyright (c) Steve Scherf et al.
# Submitted via: ExactAudioCopy v1.3
#
DISCID=2712ad15
DTITLE=Various Artist - Akella Presents - Country Blues - vol.29  CD2
DTITLE=New!
DYEAR=2013
DGENRE=Country
TTITLE0=COLIN JAMES - Shadow Of Love
TTITLE1=GURF MORLIX - Big Cheeseburgers And Good French Fries
TTITLE2=ERIC BURDON - Factory Girl
TTITLE3=DELTA MOON - Take The Back Road Home
TTITLE4=BRIAN KRAMER - I Want My Illusion
TTITLE5=MARIA MULDAUR - Buckets Of Rain
TTITLE6=KILLING FLOOR - Road Of Diamonds
TTITLE7=GORDIE TENTREES - No Integrity Man
TTITLE8=JOHN CAMPBELLJOHN - Ask Me No Questions
TTITLE9=J.J.CALE and ERIC CLAPTON - Ride The River
TTITLE10=MARK KNOPFLER - Punish The Monkey
TTITLE11=LITTLE CHARLIE  The NIGHTCATS - Don't Cha Do Nothin'
TTITLE12=TOMMY SHAW - I ll Be Comin  Home
TTITLE13=J.J. CALE - All Mama's Children
TTITLE14=DUFFY BISHOP - Daughter's Lament
TTITLE15=ARLEN ROTH - North Sea
TTITLE16=GORDIE TENTREES - Ross River
TTITLE17=HANS THEESSINK - Roll With The Punches
TTITLE18=BIG HOUSE - Guitars and Whiskey
TTITLE19=HANK SHIZZOE - Stagger Lee
TTITLE20=MIKE MORGAN and The CRAWL - Born To Lose In Love
EXTD=
EXTT0=
EXTT1=
EXTT2=
EXTT3=
EXTT4=
EXTT5=
EXTT6=
EXTT7=
EXTT8=
EXTT9=
EXTT10=
EXTT11=
EXTT12=
EXTT13=
EXTT14=
EXTT15=
EXTT16=
EXTT17=
EXTT18=
EXTT19=
EXTT20=
PLAYORDER=
